<svg xmlns="http://www.w3.org/2000/svg" width="1024" height="1024" viewBox="0 0 1024 1024">
  <defs>
    <linearGradient id="bg" x1="0" y1="0" x2="1" y2="1">
      <stop offset="0%" stop-color="#0a0d13"/>
      <stop offset="55%" stop-color="#111827"/>
      <stop offset="100%" stop-color="#1f2937"/>
    </linearGradient>
    <linearGradient id="ring" x1="0" y1="0" x2="1" y2="1">
      <stop offset="0%" stop-color="#60a5fa"/>
      <stop offset="50%" stop-color="#a78bfa"/>
      <stop offset="100%" stop-color="#22d3ee"/>
    </linearGradient>
    <linearGradient id="gemA" x1="0" y1="0" x2="1" y2="1">
      <stop offset="0%" stop-color="#dbeafe"/>
      <stop offset="45%" stop-color="#93c5fd"/>
      <stop offset="100%" stop-color="#60a5fa"/>
    </linearGradient>
    <linearGradient id="gemB" x1="0" y1="0" x2="1" y2="1">
      <stop offset="0%" stop-color="#c4b5fd"/>
      <stop offset="100%" stop-color="#7c3aed"/>
    </linearGradient>
    <linearGradient id="gemC" x1="0" y1="0" x2="1" y2="1">
      <stop offset="0%" stop-color="#67e8f9"/>
      <stop offset="100%" stop-color="#0891b2"/>
    </linearGradient>
    <filter id="softGlow" x="-30%" y="-30%" width="160%" height="160%">
      <feGaussianBlur stdDeviation="14" result="b"/>
      <feMerge>
        <feMergeNode in="b"/>
        <feMergeNode in="SourceGraphic"/>
      </feMerge>
    </filter>
  </defs>

  <rect x="24" y="24" width="976" height="976" rx="220" fill="url(#bg)"/>

  <circle cx="512" cy="512" r="300" fill="none" stroke="url(#ring)" stroke-width="26" opacity="0.9" filter="url(#softGlow)"/>
  <circle cx="512" cy="512" r="300" fill="none" stroke="#e5f0ff" stroke-opacity="0.08" stroke-width="6"/>

  <circle cx="812" cy="512" r="18" fill="#67e8f9"/>
  <circle cx="331" cy="273" r="14" fill="#a78bfa"/>
  <circle cx="632" cy="785" r="12" fill="#93c5fd"/>

  <g transform="translate(512 512)">
    <path d="M 0 -230 L 158 -118 L 118 118 L 0 226 L -118 118 L -158 -118 Z" fill="url(#gemA)" opacity="0.96"/>
    <path d="M 0 -230 L 158 -118 L 0 -10 Z" fill="#e0f2fe" opacity="0.95"/>
    <path d="M 0 -10 L 158 -118 L 118 118 Z" fill="url(#gemB)" opacity="0.88"/>
    <path d="M 0 -10 L 118 118 L 0 226 Z" fill="url(#gemC)" opacity="0.92"/>
    <path d="M 0 226 L -118 118 L 0 -10 Z" fill="#2563eb" opacity="0.88"/>
    <path d="M 0 -10 L -118 118 L -158 -118 Z" fill="#7c3aed" opacity="0.84"/>
    <path d="M 0 -230 L 0 -10 L -158 -118 Z" fill="#bfdbfe" opacity="0.95"/>

    <rect x="-74" y="-66" width="148" height="34" rx="12" fill="#0f172a" opacity="0.92"/>
    <rect x="-20" y="-66" width="40" height="160" rx="16" fill="#0f172a" opacity="0.92"/>
  </g>

  <rect x="24" y="24" width="976" height="976" rx="220" fill="none" stroke="#ffffff" stroke-opacity="0.07" stroke-width="8"/>
</svg>
